<?xml version="1.0" ?><svg enable-background="new 0 0 512 512" id="Layer_1" version="1.1" viewBox="0 0 512 512" xml:space="preserve" xmlns="http://www.w3.org/2000/svg" xmlns:xlink="http://www.w3.org/1999/xlink"><g><g><linearGradient gradientUnits="userSpaceOnUse" id="SVGID_1_" x1="0.0000038" x2="512" y1="256" y2="256"><stop offset="0" style="stop-color:#E24263"/><stop offset="1" style="stop-color:#DD1E47"/></linearGradient><circle cx="256" cy="256" fill="url(#SVGID_1_)" r="256"/><linearGradient gradientUnits="userSpaceOnUse" id="SVGID_2_" x1="42.6666679" x2="469.3333435" y1="256.0005188" y2="256.0005188"><stop offset="0" style="stop-color:#DD1E47"/><stop offset="1" style="stop-color:#E24263"/></linearGradient><path d="M256,469.3338623c-117.6309357,0-213.3333282-95.7023926-213.3333282-213.3333435    c0-117.6314545,95.7023926-213.333313,213.3333282-213.333313c117.636261,0,213.3333435,95.7018661,213.3333435,213.333313    C469.3333435,373.6314697,373.636261,469.3338623,256,469.3338623z" fill="url(#SVGID_2_)"/></g><g><path d="M349.4970703,175.6719971c-17.1845398-5.8896027-16.6784058-23.4655914-16.6494751-24.2095947    l-0.0177307-0.0016022v-6.9680023h-9.9599915v165.0693359c-12.4026794-12.6085205-34.741333-17.894928-57.4516296-11.9104004    c-17.5297089,4.5813293-32.0213165,14.8405457-39.7403717,28.0869446    c-5.3786774,9.2127991-6.9226685,18.9248047-4.482666,28.1370544    c4.8310547,18.1781311,24.5023956,29.6309204,47.609726,29.6309204c6.075592,0,12.3507996-0.7962646,18.7246704-2.4389038    c17.5301208-4.6325378,32.0219727-14.8912048,39.741333-28.1381531c3.7109375-6.4159851,5.5418701-13.071991,5.5136108-19.6368103    h0.0453186v-156.578125c3.3653259,3.444809,7.7365417,6.4288025,13.4384155,8.3824005    c20.2746582,6.9445343,29.2943726,24.0832062,27.5679932,52.3877411l9.9402466,0.6031952    C385.7850647,205.153595,374.2517395,184.153595,349.4970703,175.6719971z" opacity="0.3"/><rect height="9.9605331" opacity="0.3" width="153.7664032" x="144" y="144.4927979"/><rect height="9.96" opacity="0.3" width="153.7664032" x="144" y="183.633606"/><rect height="9.96" opacity="0.3" width="153.7664032" x="144" y="222.7781372"/><rect height="9.96" opacity="0.3" width="153.7664032" x="144" y="261.9231873"/></g><g><path d="M341.4970703,167.6719971c-17.1845398-5.8896027-16.6784058-23.4655914-16.6494751-24.2095947    l-0.0177307-0.0016022v-6.9680023h-9.9599915v165.0693359c-12.4026794-12.6085205-34.741333-17.894928-57.4516296-11.9104004    c-17.5297089,4.5813293-32.0213165,14.8405457-39.7403717,28.0869446    c-5.3786774,9.2127991-6.9226685,18.9248047-4.482666,28.1370544    c4.8310547,18.1781311,24.5023956,29.6309204,47.609726,29.6309204c6.075592,0,12.3507996-0.7962646,18.7246704-2.4389038    c17.5301208-4.6325378,32.0219727-14.8912048,39.741333-28.1381531c3.7109375-6.4159851,5.5418701-13.071991,5.5136108-19.6368103    h0.0453186v-156.578125c3.3653259,3.444809,7.7365417,6.4288025,13.4384155,8.3824005    c20.2746582,6.9445343,29.2943726,24.0832062,27.5679932,52.3877411l9.9402466,0.6031952    C377.7850647,197.153595,366.2517395,176.153595,341.4970703,167.6719971z" fill="#FFFFFF"/><rect fill="#FFFFFF" height="9.9605331" width="153.7664032" x="136" y="136.4927979"/><rect fill="#FFFFFF" height="9.96" width="153.7664032" x="136" y="175.633606"/><rect fill="#FFFFFF" height="9.96" width="153.7664032" x="136" y="214.7781372"/><rect fill="#FFFFFF" height="9.96" width="153.7664032" x="136" y="253.9232025"/></g></g></svg>